<?xml version="1.0" encoding="utf-8"?>
<!-- Generator: Adobe Illustrator 13.0.0, SVG Export Plug-In . SVG Version: 6.00 Build 14948)  -->
<!DOCTYPE svg PUBLIC "-//W3C//DTD SVG 1.1//EN" "http://www.w3.org/Graphics/SVG/1.1/DTD/svg11.dtd">
<svg version="1.1" id="Layer_1" xmlns="http://www.w3.org/2000/svg" xmlns:xlink="http://www.w3.org/1999/xlink" x="0px" y="0px"
	 width="205.227px" height="35.559px" viewBox="0 0 205.227 35.559" enable-background="new 0 0 205.227 35.559"
	 xml:space="preserve">
<path fill="#FFFFFF" d="M136.29,7.864c2.177,0,3.956-1.731,3.956-3.906c0-2.177-1.779-3.958-3.956-3.958
	c-2.175,0-3.905,1.781-3.905,3.958C132.385,6.133,134.115,7.864,136.29,7.864"/>
<path fill="#FFFFFF" d="M193.752,31.651c-1.418,0-2.262-0.492-2.682-1.475c0.242-0.419,0.478-0.883,0.709-1.367
	c0.098,0.011,0.197,0.023,0.293,0.023c1.285,0,2.174-1.236,2.174-2.424c0-0.841-0.494-1.435-1.137-1.73
	c1.634-3.166,3.018-6.133,4.006-9.346c0.496,7.616,0.939,9.148,0.939,11.72C198.055,30.514,195.93,31.651,193.752,31.651
	 M177.929,26.409c-0.592,2.868-2.67,4.353-4.103,4.353c-0.891,0-2.475-0.048-2.475-3.856c0-4.649,2.721-13.551,6.924-13.551
	c1.584,0,2.027,1.284,2.027,1.878L177.929,26.409z M204.139,9.001l-7.32,0.988c-1.532,4.848-3.313,9.744-6.082,14.64
	c-1.336,0.642-2.621,2.324-2.621,4.6c0,0.422,0.048,0.852,0.134,1.276c-0.47,0.34-0.988,0.553-1.565,0.553
	c-1.386,0-2.027-0.742-2.027-2.126c0-0.446,0.049-0.939,0.197-1.583l3.561-16.814h-7.121l-0.544,2.619V12.81
	c0-1.434-1.187-2.524-4.006-2.524c-8.605,0-12.71,10.634-12.71,17.31c0,0.585,0.039,1.122,0.099,1.631
	c-0.825,0.941-1.846,1.534-2.918,1.534c-1.384,0-2.026-0.445-2.026-1.829c0-0.446,0.049-0.939,0.198-1.583l5.687-26.706l-7.32,0.99
	l-5.29,24.775c-0.196,0.945-0.308,1.805-0.353,2.598c-0.859,1.072-1.955,1.755-3.109,1.755c-1.385,0-2.027-0.445-2.027-1.829
	c0-0.446,0.049-0.939,0.196-1.583l5.688-26.706l-7.319,0.99l-5.293,24.775c-0.195,0.946-0.306,1.805-0.353,2.601
	c-0.856,1.071-1.953,1.752-3.107,1.752c-1.385,0-2.028-0.445-2.028-1.829c0-0.446,0.05-0.939,0.198-1.583l3.561-16.814h-7.121
	l-3.363,15.874c-0.246,1.188-0.396,2.276-0.396,3.215c0,4.154,2.325,5.936,5.291,5.936c1.841,0,4.735-0.516,7.279-3.473
	c0.751,2.396,2.646,3.473,4.937,3.473c1.838,0,4.733-0.518,7.279-3.475c0.75,2.397,2.645,3.475,4.936,3.475
	c1.883,0,4.863-0.552,7.451-3.688c1.15,2.653,3.438,3.688,5.803,3.688c3.511,0,5.836-2.275,7.367-4.551
	c0.297,2.968,2.078,4.551,4.847,4.551c1.696,0,4.108-0.445,6.366-2.83c1.106,1.619,3.1,2.83,6.145,2.83
	c4.055,0,9.891-2.127,9.891-8.557C205.227,23.739,204.732,21.809,204.139,9.001"/>
<path fill="#FFFFFF" d="M125.164,9.545c-2.076,0-3.064,1.138-3.064,2.671c0,1.088,0.593,2.521,1.779,2.521
	c0.395,0,1.433-0.149,1.582-0.494c0,5.44-3.709,16.517-8.556,16.517c-1.187,0-1.68-0.644-1.68-1.632c0-0.445,0.097-1.088,0.247-1.78
	l3.559-16.814h-7.121l-3.232,15.26c0.023-0.027,0.047-0.051,0.07-0.078c0.201-0.229,0.487-0.358,0.791-0.358h1.682
	c0.381,0,0.732,0.207,0.918,0.54c0.185,0.333,0.176,0.74-0.026,1.064c-1.181,1.906-2.426,3.518-3.737,4.853
	c0.711,2.501,2.799,3.743,5.811,3.743c10.088,0,14.094-13.798,14.094-21.711C128.279,11.672,127.538,9.545,125.164,9.545"/>
<path fill="#FFFFFF" d="M31.85,14.244c0-1.879-1.187-3.709-3.413-3.709c-2.374,0-4.252,1.582-5.983,3.065l0.641-3.065h-7.121
	l-3.981,18.78c-0.814,0.89-1.804,1.447-2.841,1.447c-1.387,0-2.029-0.446-2.029-1.83c0-0.446,0.048-0.94,0.198-1.584l3.165-14.835
	h2.968l0.394-1.978h-2.966l1.682-7.814L5.244,3.71l-1.485,6.825H2.128l-0.396,1.978h1.633L0.397,26.41
	C0.15,27.598,0,28.684,0,29.623c0,4.155,2.326,5.937,5.293,5.937c1.493,0,3.68-0.344,5.811-2.049l-0.372,1.752h7.122l3.956-18.793
	c1.237-1.138,2.128-1.879,3.609-1.879c1.485,0,0.1,3.263,2.869,3.263C30.712,17.853,31.85,15.975,31.85,14.244"/>
<path fill="#FFFFFF" d="M38.475,7.864c2.176,0,3.956-1.731,3.956-3.906c0-2.177-1.78-3.958-3.956-3.958
	c-2.175,0-3.906,1.781-3.906,3.958C34.569,6.133,36.3,7.864,38.475,7.864"/>
<path fill="#FFFFFF" d="M64.485,31.653c-1.983,0-2.849-0.957-2.986-2.89c0.068-0.093,0.136-0.185,0.202-0.278
	c0.297,0.26,0.728,0.349,1.104,0.349c1.286,0,2.176-1.237,2.176-2.425c0-0.84-0.496-1.434-1.137-1.73
	c1.632-3.165,3.015-6.133,4.006-9.346c0.494,7.616,0.938,9.149,0.938,11.721C68.788,30.514,66.662,31.653,64.485,31.653
	 M55.537,12.711c0.94,0,1.237,0.791,1.237,2.028c0,4.103-3.364,7.912-7.173,8.16C50.592,18.001,53.016,12.711,55.537,12.711
	 M103.652,12.711c0.941,0,1.238,0.791,1.238,2.028c0,4.103-3.363,7.912-7.171,8.16C98.709,18.001,101.131,12.711,103.652,12.711
	 M109.539,26.409c-2.473,2.819-4.847,4.996-8.755,4.996c-2.372,0-3.559-0.793-3.559-4.154c0-0.594,0.049-1.285,0.097-1.979
	c5.936-0.347,11.376-4.746,11.376-10.436c0-2.472-1.038-4.746-5.44-4.746c-10.139,0-13.354,11.917-13.354,17.605
	c0,0.547,0.038,1.051,0.097,1.535c-0.829,0.939-1.845,1.531-2.915,1.531c-1.385,0-2.027-0.447-2.027-1.831
	c0-0.444,0.048-0.938,0.197-1.582l3.165-14.837h2.968l0.396-1.978h-2.969l1.682-7.814L83.18,3.709l-1.485,6.825h-1.633l-0.394,1.978
	H81.3l-2.968,13.896c-0.064,0.308-0.1,0.588-0.149,0.883c-0.739,0.535-1.565,1.082-2.421,1.59c0.149-0.594,0.197-1.186,0.197-1.878
	c0-3.265-0.494-5.193-1.088-18.001L67.553,9.99c-1.534,4.846-3.315,9.743-6.083,14.639c-1.287,0.62-2.519,2.211-2.605,4.361
	c-1.712,1.455-3.619,2.414-6.196,2.414c-2.374,0-3.562-0.793-3.562-4.154c0-0.594,0.05-1.285,0.1-1.979
	c5.935-0.347,11.374-4.746,11.374-10.436c0-2.472-1.038-4.746-5.439-4.746c-10.14,0-13.353,11.917-13.353,17.605
	c0,0.547,0.036,1.051,0.095,1.535c-0.827,0.939-1.845,1.531-2.915,1.531c-1.385,0-2.028-0.447-2.028-1.831
	c0-0.444,0.05-0.938,0.2-1.582L40.7,10.534h-7.121l-3.363,15.875c-0.246,1.188-0.396,2.275-0.396,3.216
	c0,4.153,2.324,5.934,5.292,5.934c1.886,0,4.877-0.554,7.468-3.711c1.192,2.589,3.668,3.711,6.924,3.711
	c4.072,0,7.234-1.765,9.723-4.188c0.814,2.256,2.989,4.188,6.842,4.188c2.522,0,5.687-0.791,7.764-2.966
	c1.267-0.745,2.673-1.666,4.112-2.841c0.05,4.057,2.349,5.807,5.282,5.807c1.886,0,4.879-0.554,7.468-3.711
	c1.195,2.589,3.67,3.711,6.924,3.711c6.579,0,10.782-4.599,13.602-9.149H109.539z"/>
</svg>
